# xmcd
#
# Track frame offsets:
# 150
# 13602
# 24660
# 37137
# 47142
# 61530
# 72777
# 84395
# 96265
# 109042
# 121572
# 133775
#
# Disc length: 1939 seconds
#
#
# Revision: 0
# Processed by: cddbd v1.5.1PL0 Copyright (c) Steve Scherf et al.
# Submitted via: FreeRIP 2.70 
#
DISCID=9507910c
DTITLE=Snow, Hank - 36 All-Time Greatest Hits - Disc 2
DYEAR=2002
DGENRE=Country
TTITLE0=I Don't Hurt Anymore
TTITLE1=Let Me Go, Lover
TTITLE2=Yellow Roses
TTITLE3=Would You Mind
TTITLE4=Stolen Moments
TTITLE5=Big Wheels
TTITLE6=The Last Ride
TTITLE7=Miller's Cave
TTITLE8=Beggar To A King
TTITLE9=I've Been Everywhere
TTITLE10=The Man Who Robbed The Bank At Santa Fe
TTITLE11=Ninety Miles An Hour (Down A Dead End Street)
EXTD=Entered By Itaot...
EXTT0=
EXTT1=
EXTT2=
EXTT3=
EXTT4=
EXTT5=
EXTT6=
EXTT7=
EXTT8=
EXTT9=
EXTT10=
EXTT11=
PLAYORDER=
